STARTFONT 2.1
FONT -DEC-Terminal-Medium-R-Double Wide--25-180-100-100-C-220-ISO8859-8
SIZE 18 100 100
FONTBOUNDINGBOX 25 26 0 -5

STARTPROPERTIES 25
CHARSET_REGISTRY "ISO8859"
CHARSET_ENCODING "8"
CAP_HEIGHT 15
X_HEIGHT 12
AVERAGE_WIDTH 220
FONTNAME_REGISTRY ""
FAMILY_NAME "Terminal"
FOUNDRY "DEC"
WEIGHT_NAME "Medium"
SETWIDTH_NAME "Double Wide"
SLANT "R"
ADD_STYLE_NAME ""
PIXEL_SIZE 25
RESOLUTION_X 100
RESOLUTION_Y 100
SPACING "C"
CHARSET_COLLECTIONS "ASCII ISO8859-8"
FULL_NAME "Terminal Double Wide"
COPYRIGHT "Copyright (c) 1988 Bitstream, Inc., Copyright 1991 Digital Equipment Corp. All rights reserved"
QUAD_WIDTH 25
POINT_SIZE 180
WEIGHT 10
DEFAULT_CHAR 0
FONT_DESCENT 5
FONT_ASCENT 20
ENDPROPERTIES

CHARS 193

STARTCHAR space
ENCODING 32
SWIDTH 1000 0
DWIDTH 25 0
BBX 6 15 9 0
BITMAP
00
00
00
00
00
00
00
00
00
00
00
00
00
00
00
ENDCHAR

STARTCHAR exclam
ENCODING 33
SWIDTH 1000 0
DWIDTH 25 0
BBX 6 15 9 0
BITMAP
78
78
78
78
78
78
78
78
78
00
00
78
FC
FC
78
ENDCHAR

STARTCHAR quotedbl
ENCODING 34
SWIDTH 1000 0
DWIDTH 25 0
BBX 13 8 6 9
BITMAP
F078
F078
F078
F078
F078
F078
F078
F078
ENDCHAR

STARTCHAR numbersign
ENCODING 35
SWIDTH 1000 0
DWIDTH 25 0
BBX 23 18 1 -3
BITMAP
0783C0
0783C0
0783C0
0783C0
0783C0
0783C0
FFFFFE
0783C0
0783C0
0783C0
0783C0
FFFFFE
0783C0
0783C0
0783C0
0783C0
0783C0
0783C0
ENDCHAR

STARTCHAR dollar
ENCODING 36
SWIDTH 1000 0
DWIDTH 25 0
BBX 17 21 4 -4
BITMAP
01C000
01C000
01C000
1FEF00
783F00
F01F00
F00F00
F80000
7F0000
1FFC00
00FF00
000F00
000780
F00780
F80700
FC0F00
F7FC00
01C000
01C000
01C000
01C000
ENDCHAR

STARTCHAR percent
ENCODING 37
SWIDTH 1000 0
DWIDTH 25 0
BBX 21 15 2 0
BITMAP
3F8000
71C000
E0E000
E0E070
E0E1F0
71C780
3F9E00
007000
03CFE0
1F1C70
FC3838
E03838
003838
001C70
000FE0
ENDCHAR

STARTCHAR ampersand
ENCODING 38
SWIDTH 1000 0
DWIDTH 25 0
BBX 16 15 5 0
BITMAP
1FDC
3C3C
383C
3800
3800
1C00
1E00
7F3F
779C
F3D8
F1F8
F0F0
F078
78FC
3F9F
ENDCHAR

STARTCHAR quoteright
ENCODING 39
SWIDTH 1000 0
DWIDTH 25 0
BBX 8 7 8 11
BITMAP
3F
3E
3C
7C
78
F0
E0
ENDCHAR

STARTCHAR parenleft
ENCODING 40
SWIDTH 1000 0
DWIDTH 25 0
BBX 8 21 9 -4
BITMAP
03
07
0E
1C
3C
38
78
70
F0
F0
F0
F0
F0
70
78
38
3C
1C
0E
07
03
ENDCHAR

STARTCHAR parenright
ENCODING 41
SWIDTH 1000 0
DWIDTH 25 0
BBX 8 21 8 -4
BITMAP
C0
E0
70
38
3C
1C
1E
0E
0F
0F
0F
0F
0F
0E
1E
1C
3C
38
70
E0
C0
ENDCHAR

STARTCHAR asterisk
ENCODING 42
SWIDTH 1000 0
DWIDTH 25 0
BBX 17 11 4 2
BITMAP
01C000
01C000
F1C780
F9CF80
3FFE00
0FF800
07F000
07F000
1E3C00
1C1C00
1C1C00
ENDCHAR

STARTCHAR plus
ENCODING 43
SWIDTH 1000 0
DWIDTH 25 0
BBX 18 14 3 0
BITMAP
01E000
01E000
01E000
01E000
01E000
01E000
FFFFC0
FFFFC0
01E000
01E000
01E000
01E000
01E000
01E000
ENDCHAR

STARTCHAR comma
ENCODING 44
SWIDTH 1000 0
DWIDTH 25 0
BBX 8 8 8 -4
BITMAP
3F
3E
7E
7C
78
F8
F0
E0
ENDCHAR

STARTCHAR minus
ENCODING 45
SWIDTH 1000 0
DWIDTH 25 0
BBX 19 2 3 6
BITMAP
FFFFE0
FFFFE0
ENDCHAR

STARTCHAR period
ENCODING 46
SWIDTH 1000 0
DWIDTH 25 0
BBX 8 4 8 0
BITMAP
7E
FF
FF
7E
ENDCHAR

STARTCHAR slash
ENCODING 47
SWIDTH 1000 0
DWIDTH 25 0
BBX 19 20 3 -3
BITMAP
0000E0
0001E0
0003C0
000780
000700
000E00
001C00
003C00
007800
007000
00E000
01C000
038000
078000
0F0000
0E0000
1C0000
3C0000
780000
F00000
ENDCHAR

STARTCHAR zero
ENCODING 48
SWIDTH 1000 0
DWIDTH 25 0
BBX 17 15 4 0
BITMAP
07F000
1E3C00
3C1E00
780F00
780F00
F00780
F00780
F00780
F00780
F00780
780F00
780F00
3C1E00
1E3C00
07F000
ENDCHAR

STARTCHAR one
ENCODING 49
SWIDTH 1000 0
DWIDTH 25 0
BBX 17 15 4 0
BITMAP
03E000
7FE000
01E000
01E000
01E000
01E000
01E000
01E000
01E000
01E000
01E000
01E000
01E000
01E000
FFFF80
ENDCHAR

STARTCHAR two
ENCODING 50
SWIDTH 1000 0
DWIDTH 25 0
BBX 17 15 4 0
BITMAP
3FF800
F81E00
F00F00
000F00
000F00
000F00
001E00
003C00
00F000
03C000
078000
1E0000
780780
F00780
FFFF80
ENDCHAR

STARTCHAR three
ENCODING 51
SWIDTH 1000 0
DWIDTH 25 0
BBX 16 15 5 0
BITMAP
3FF8
F81E
F80F
000F
000F
000F
001E
0FF8
001E
000F
000F
000F
F80F
F81E
3FF8
ENDCHAR

STARTCHAR four
ENCODING 52
SWIDTH 1000 0
DWIDTH 25 0
BBX 18 15 3 0
BITMAP
00FC00
01FC00
033C00
063C00
0C3C00
183C00
303C00
603C00
C03C00
FFFFC0
FFFFC0
003C00
003C00
003C00
03FFC0
ENDCHAR

STARTCHAR five
ENCODING 53
SWIDTH 1000 0
DWIDTH 25 0
BBX 17 15 4 0
BITMAP
7FFE00
780000
780000
780000
780000
780000
7FFC00
781F00
000F80
000F80
000F80
000F80
FC0F00
FC1E00
3FF800
ENDCHAR

STARTCHAR six
ENCODING 54
SWIDTH 1000 0
DWIDTH 25 0
BBX 16 15 5 0
BITMAP
01FE
0700
1C00
3800
7800
7000
F3F8
FC1E
F80E
F00F
F00F
F00F
780E
7C1E
1FF8
ENDCHAR

STARTCHAR seven
ENCODING 55
SWIDTH 1000 0
DWIDTH 25 0
BBX 17 15 5 0
BITMAP
FFFF80
F00F80
F00F00
001E00
001E00
003C00
003C00
007800
00F800
00F000
01E000
03E000
03C000
07C000
0F8000
ENDCHAR

STARTCHAR eight
ENCODING 56
SWIDTH 1000 0
DWIDTH 25 0
BBX 15 15 5 0
BITMAP
1FF0
783C
F01E
F01E
F01E
F01E
783C
1FF0
783C
F01E
F01E
F01E
F01E
783C
1FF0
ENDCHAR

STARTCHAR nine
ENCODING 57
SWIDTH 1000 0
DWIDTH 25 0
BBX 15 15 5 0
BITMAP
1FF0
783C
F01C
F01E
F01E
F01E
F01E
787E
1F9E
001E
003C
003C
0078
01E0
FF80
ENDCHAR

STARTCHAR colon
ENCODING 58
SWIDTH 1000 0
DWIDTH 25 0
BBX 9 12 8 0
BITMAP
7F00
FF80
FF80
7F00
0000
0000
0000
0000
7F00
FF80
FF80
7F00
ENDCHAR

STARTCHAR semicolon
ENCODING 59
SWIDTH 1000 0
DWIDTH 25 0
BBX 10 16 7 -4
BITMAP
3F80
7FC0
7FC0
3F80
0000
0000
0000
0000
3F00
3E00
7E00
7C00
7800
F800
F000
E000
ENDCHAR

STARTCHAR less
ENCODING 60
SWIDTH 1000 0
DWIDTH 25 0
BBX 20 11 3 2
BITMAP
0000F0
001FF0
00FF00
0FF000
3F0000
F00000
3F0000
0FF000
00FF00
001FF0
0001F0
ENDCHAR

STARTCHAR equal
ENCODING 61
SWIDTH 1000 0
DWIDTH 25 0
BBX 19 8 3 3
BITMAP
FFFFE0
FFFFE0
000000
000000
000000
000000
FFFFE0
FFFFE0
ENDCHAR

STARTCHAR greater
ENCODING 62
SWIDTH 1000 0
DWIDTH 25 0
BBX 20 11 2 2
BITMAP
F00000
FF8000
0FF000
00FF00
000FC0
0000F0
000FC0
00FF00
0FF000
FF8000
F80000
ENDCHAR

STARTCHAR question
ENCODING 63
SWIDTH 1000 0
DWIDTH 25 0
BBX 19 15 3 0
BITMAP
3FFF80
F807C0
F803E0
0003E0
0007C0
001F80
00FC00
03E000
03C000
000000
000000
07C000
0FE000
0FE000
07C000
ENDCHAR

STARTCHAR at
ENCODING 64
SWIDTH 1000 0
DWIDTH 25 0
BBX 23 19 1 -2
BITMAP
03FF00
0F01C0
3C00E0
3C00F0
780070
780078
F03FF8
F0F878
F0F078
F1F078
F1F078
F0F078
F0F878
783FFE
780000
3C0000
3C0000
0F01F0
03FFF0
ENDCHAR

STARTCHAR A
ENCODING 65
SWIDTH 1000 0
DWIDTH 25 0
BBX 25 15 0 0
BITMAP
001E0000
003F0000
003F8000
00778000
00E3C000
00E1E000
01C1E000
0380F000
0780F800
07007800
0FFFFC00
0E007C00
1C003E00
3C003E00
FFC0FF80
ENDCHAR

STARTCHAR B
ENCODING 66
SWIDTH 1000 0
DWIDTH 25 0
BBX 21 15 2 0
BITMAP
FFFF80
1E03C0
1E01E0
1E01E0
1E01E0
1E01C0
1E0380
1FFFE0
1E01F0
1E0078
1E0078
1E0078
1E00F8
1E03F0
FFFFC0
ENDCHAR

STARTCHAR C
ENCODING 67
SWIDTH 1000 0
DWIDTH 25 0
BBX 21 15 2 0
BITMAP
03FE38
1F07B8
3C01F8
7C0078
780038
F00038
F00000
F00000
F00000
F00000
780000
7C0000
3C00F8
1F01F0
03FFC0
ENDCHAR

STARTCHAR D
ENCODING 68
SWIDTH 1000 0
DWIDTH 25 0
BBX 21 15 2 0
BITMAP
FFFF00
1E03C0
1E00F0
1E00F0
1E0078
1E0078
1E0078
1E0078
1E0078
1E0078
1E0078
1E00F0
1E00F0
1E03C0
FFFF00
ENDCHAR

STARTCHAR E
ENCODING 69
SWIDTH 1000 0
DWIDTH 25 0
BBX 21 15 1 0
BITMAP
FFFFF8
078018
078018
078018
078300
078300
078300
07FF00
078300
078300
078018
078018
078018
078018
FFFFF8
ENDCHAR

STARTCHAR F
ENCODING 70
SWIDTH 1000 0
DWIDTH 25 0
BBX 21 15 2 0
BITMAP
FFFFF8
078018
078018
078018
078300
078300
078300
07FF00
078300
078300
078000
078000
078000
078000
FFFC00
ENDCHAR

STARTCHAR G
ENCODING 71
SWIDTH 1000 0
DWIDTH 25 0
BBX 22 15 2 0
BITMAP
07FC70
1E0F70
7801F0
7800F0
F00070
F00070
F00000
F00000
F00000
F01FFC
F801E0
7801E0
7C01E0
1F03E0
07FF80
ENDCHAR

STARTCHAR H
ENCODING 72
SWIDTH 1000 0
DWIDTH 25 0
BBX 23 15 1 0
BITMAP
FFC7FE
1E00F0
1E00F0
1E00F0
1E00F0
1E00F0
1E00F0
1FFFF0
1E00F0
1E00F0
1E00F0
1E00F0
1E00F0
1E00F0
FFC7FE
ENDCHAR

STARTCHAR I
ENCODING 73
SWIDTH 1000 0
DWIDTH 25 0
BBX 16 15 4 0
BITMAP
FFFF
03C0
03C0
03C0
03C0
03C0
03C0
03C0
03C0
03C0
03C0
03C0
03C0
03C0
FFFF
ENDCHAR

STARTCHAR J
ENCODING 74
SWIDTH 1000 0
DWIDTH 25 0
BBX 20 15 3 0
BITMAP
0FFFF0
001E00
001E00
001E00
001E00
001E00
001E00
001E00
C01E00
C01E00
C01E00
C01E00
E01C00
F03C00
3FF000
ENDCHAR

STARTCHAR K
ENCODING 75
SWIDTH 1000 0
DWIDTH 25 0
BBX 21 15 2 0
BITMAP
FFCFF8
1E03E0
1E0380
1E0F00
1E1C00
1E3000
1EF000
1FF800
1E7C00
1E1E00
1E0F00
1E0F80
1E07C0
1E03E0
FFC3F8
ENDCHAR

STARTCHAR L
ENCODING 76
SWIDTH 1000 0
DWIDTH 25 0
BBX 21 15 2 0
BITMAP
FFFC00
078000
078000
078000
078000
078000
078000
078000
078000
078000
078018
078018
078018
078018
FFFFF8
ENDCHAR

STARTCHAR M
ENCODING 77
SWIDTH 1000 0
DWIDTH 25 0
BBX 25 15 0 0
BITMAP
FF007F80
3F007E00
3F80FE00
3D80DE00
3CC19E00
3CC19E00
3C631E00
3C631E00
3C361E00
3C3E1E00
3C1C1E00
3C1C1E00
3C001E00
3C001E00
FF80FF80
ENDCHAR

STARTCHAR N
ENCODING 78
SWIDTH 1000 0
DWIDTH 25 0
BBX 23 15 1 0
BITMAP
FF07FE
1F80F0
1F80F0
1EC0F0
1E60F0
1E30F0
1E30F0
1E18F0
1E0CF0
1E0CF0
1E06F0
1E03F0
1E01F0
1E01F0
FFE0F0
ENDCHAR

STARTCHAR O
ENCODING 79
SWIDTH 1000 0
DWIDTH 25 0
BBX 21 15 2 0
BITMAP
07FF00
1E03C0
7800F0
7800F0
F00078
F00078
F00078
F00078
F00078
F00078
F00078
7800F0
7800F0
1E03C0
07FF00
ENDCHAR

STARTCHAR P
ENCODING 80
SWIDTH 1000 0
DWIDTH 25 0
BBX 21 15 2 0
BITMAP
FFFFE0
0780F0
078078
078078
078078
078078
078078
0780F0
07FFE0
078000
078000
078000
078000
078000
FFFE00
ENDCHAR

STARTCHAR Q
ENCODING 81
SWIDTH 1000 0
DWIDTH 25 0
BBX 22 20 2 -5
BITMAP
07FE00
1E0780
7801E0
7801E0
F000F0
F000F0
F000F0
F000F0
F000F0
F000F0
F000F0
7801E0
7801E0
1E0780
07FE00
03C000
030000
03F80C
0FFFFC
0F0FF8
ENDCHAR

STARTCHAR R
ENCODING 82
SWIDTH 1000 0
DWIDTH 25 0
BBX 23 15 1 0
BITMAP
FFFFE0
1E01F0
1E0078
1E0078
1E0078
1E00F0
1E03E0
1FFF80
1E07C0
1E03C0
1E01E0
1E01F0
1E00F0
1E00F8
FF807E
ENDCHAR

STARTCHAR S
ENCODING 83
SWIDTH 1000 0
DWIDTH 25 0
BBX 18 15 4 0
BITMAP
1FF780
7C1F80
F80F80
F00780
F00000
F80000
7FE000
1FFE00
007F80
0007C0
F003C0
F003C0
F807C0
FC1F80
EFFE00
ENDCHAR

STARTCHAR T
ENCODING 84
SWIDTH 1000 0
DWIDTH 25 0
BBX 22 15 1 0
BITMAP
FFFFFC
E0781C
E0781C
E0781C
E0781C
007800
007800
007800
007800
007800
007800
007800
007800
007800
07FF80
ENDCHAR

STARTCHAR U
ENCODING 85
SWIDTH 1000 0
DWIDTH 25 0
BBX 23 15 1 0
BITMAP
FFC7FE
1E00F0
1E00F0
1E00F0
1E00F0
1E00F0
1E00F0
1E00F0
1E00F0
1E00F0
1E00F0
1E00F0
1E00F0
0F01E0
03FFC0
ENDCHAR

STARTCHAR V
ENCODING 86
SWIDTH 1000 0
DWIDTH 25 0
BBX 25 15 0 0
BITMAP
FF80FF80
3E000E00
1E001C00
1F001C00
0F003800
07807000
03807000
03C0E000
01E1C000
00E1C000
00F38000
007B0000
003F0000
003E0000
001C0000
ENDCHAR

STARTCHAR W
ENCODING 87
SWIDTH 1000 0
DWIDTH 25 0
BBX 25 15 0 0
BITMAP
FFC1FF80
1E001E00
1E001E00
1E001E00
1E0C1E00
1E0C1E00
1E1E1E00
0E3E1C00
0E371C00
0E739C00
0EE39C00
0EC1DC00
0780F800
0780F800
07007800
ENDCHAR

STARTCHAR X
ENCODING 88
SWIDTH 1000 0
DWIDTH 25 0
BBX 23 15 1 0
BITMAP
FFE3FC
1F80E0
07C1C0
03E380
01F700
00FE00
007C00
007E00
00FF00
01EF80
03C7C0
0783E0
0F01F0
1E00F8
FF81FE
ENDCHAR

STARTCHAR Y
ENCODING 89
SWIDTH 1000 0
DWIDTH 25 0
BBX 23 15 0 0
BITMAP
FFC1FE
1F0078
0F8070
07C0E0
03E1C0
01F380
00FF00
007E00
003C00
003C00
003C00
003C00
003C00
003C00
03FFC0
ENDCHAR

STARTCHAR Z
ENCODING 90
SWIDTH 1000 0
DWIDTH 25 0
BBX 18 15 4 0
BITMAP
FFFF80
C00F80
C01F00
C03E00
007C00
00F800
01F000
03E000
07C000
0F8000
1F0000
3E00C0
7C00C0
F800C0
FFFFC0
ENDCHAR

STARTCHAR bracketleft
ENCODING 91
SWIDTH 1000 0
DWIDTH 25 0
BBX 9 20 8 -3
BITMAP
FF80
F000
F000
F000
F000
F000
F000
F000
F000
F000
F000
F000
F000
F000
F000
F000
F000
F000
F000
FF80
ENDCHAR

STARTCHAR backslash
ENCODING 92
SWIDTH 1000 0
DWIDTH 25 0
BBX 20 20 1 -3
BITMAP
F00000
780000
3C0000
1E0000
0E0000
070000
038000
01C000
00E000
00F000
007000
003800
001C00
000E00
000700
000380
000380
0001C0
0000E0
0000F0
ENDCHAR

STARTCHAR bracketright
ENCODING 93
SWIDTH 1000 0
DWIDTH 25 0
BBX 9 20 8 -3
BITMAP
FF80
0780
0780
0780
0780
0780
0780
0780
0780
0780
0780
0780
0780
0780
0780
0780
0780
0780
0780
FF80
ENDCHAR

STARTCHAR asciicircum
ENCODING 94
SWIDTH 1000 0
DWIDTH 25 0
BBX 16 6 5 4
BITMAP
03C0
0FF0
0FF0
3C3C
F00F
E007
ENDCHAR

STARTCHAR underscore
ENCODING 95
SWIDTH 1000 0
DWIDTH 25 0
BBX 25 2 0 0
BITMAP
FFFFFF80
FFFFFF80
ENDCHAR

STARTCHAR quoteleft
ENCODING 96
SWIDTH 1000 0
DWIDTH 25 0
BBX 11 7 6 11
BITMAP
FC00
7E00
3F00
0F00
0780
03C0
01E0
ENDCHAR

STARTCHAR a
ENCODING 97
SWIDTH 1000 0
DWIDTH 25 0
BBX 20 12 3 0
BITMAP
3FFE00
F80780
000380
0003C0
1FFFC0
7C07C0
F803C0
F803C0
F803C0
F807C0
7C1FC0
3FF3F0
ENDCHAR

STARTCHAR b
ENCODING 98
SWIDTH 1000 0
DWIDTH 25 0
BBX 21 17 2 0
BITMAP
FE0000
1E0000
1E0000
1E0000
1E0000
1E7FC0
1FC3F0
1F00F0
1E0078
1E0078
1E0078
1E0078
1E0078
1E0078
1F00F0
1FC3F0
FE7FC0
ENDCHAR

STARTCHAR c
ENCODING 99
SWIDTH 1000 0
DWIDTH 25 0
BBX 19 12 3 0
BITMAP
07FE60
1E07E0
7800E0
780060
F00060
F00000
F00000
F00000
780000
7801E0
3E03E0
0FFF80
ENDCHAR

STARTCHAR d
ENCODING 100
SWIDTH 1000 0
DWIDTH 25 0
BBX 21 17 2 0
BITMAP
001FC0
0003C0
0003C0
0003C0
0003C0
07F3C0
1E1FC0
7807C0
7803C0
F003C0
F003C0
F003C0
F003C0
7803C0
7807C0
3E1FC0
07F3F8
ENDCHAR

STARTCHAR e
ENCODING 101
SWIDTH 1000 0
DWIDTH 25 0
BBX 19 12 3 0
BITMAP
07FE00
1E0F80
7803C0
7803C0
F001E0
FFFFE0
F00000
F00000
780000
7801E0
3E03E0
07FF80
ENDCHAR

STARTCHAR f
ENCODING 102
SWIDTH 1000 0
DWIDTH 25 0
BBX 17 16 3 0
BITMAP
00FF80
03C000
078000
078000
7FFF00
078000
078000
078000
078000
078000
078000
078000
078000
078000
078000
FFFC00
ENDCHAR

STARTCHAR g
ENCODING 103
SWIDTH 1000 0
DWIDTH 25 0
BBX 20 16 2 -4
BITMAP
07F3F0
1E1FC0
7807C0
7803C0
F003C0
F003C0
F003C0
F003C0
7803C0
7807C0
3E1FC0
07F3C0
0003C0
0003C0
000780
1FFF00
ENDCHAR

STARTCHAR h
ENCODING 104
SWIDTH 1000 0
DWIDTH 25 0
BBX 22 16 2 0
BITMAP
FE0000
1E0000
1E0000
1E0000
1E7F80
1FC3C0
1F01E0
1E01E0
1E01E0
1E01E0
1E01E0
1E01E0
1E01E0
1E01E0
1E01E0
FFC7FC
ENDCHAR

STARTCHAR i
ENCODING 105
SWIDTH 1000 0
DWIDTH 25 0
BBX 14 18 6 0
BITMAP
0780
0780
0780
0000
0000
0000
7F80
0780
0780
0780
0780
0780
0780
0780
0780
0780
0780
FFFC
ENDCHAR

STARTCHAR j
ENCODING 106
SWIDTH 1000 0
DWIDTH 25 0
BBX 13 22 3 -4
BITMAP
0078
0078
0078
0000
0000
0000
0FF8
0078
0078
0078
0078
0078
0078
0078
0078
0078
0078
0078
0078
0070
00F0
FFC0
ENDCHAR

STARTCHAR k
ENCODING 107
SWIDTH 1000 0
DWIDTH 25 0
BBX 21 16 2 0
BITMAP
FE0000
1E0000
1E0000
1E0000
1E1FF0
1E0780
1E0E00
1E1C00
1E3800
1EFC00
1F9E00
1F0F00
1E0780
1E03C0
1E01E0
FF87F8
ENDCHAR

STARTCHAR l
ENCODING 108
SWIDTH 1000 0
DWIDTH 25 0
BBX 14 16 5 0
BITMAP
7F80
0780
0780
0780
0780
0780
0780
0780
0780
0780
0780
0780
0780
0780
0780
FFFC
ENDCHAR

STARTCHAR m
ENCODING 109
SWIDTH 1000 0
DWIDTH 25 0
BBX 24 12 0 0
BITMAP
FBF9FC
3E3F1E
3C1E0F
3C1E0F
3C1E0F
3C1E0F
3C1E0F
3C1E0F
3C1E0F
3C1E0F
3C1E0F
3C1E0F
ENDCHAR

STARTCHAR n
ENCODING 110
SWIDTH 1000 0
DWIDTH 25 0
BBX 23 12 1 0
BITMAP
FE3FC0
1FE1E0
1F00F0
1E00F0
1E00F0
1E00F0
1E00F0
1E00F0
1E00F0
1E00F0
1E00F0
FFC3FE
ENDCHAR

STARTCHAR o
ENCODING 111
SWIDTH 1000 0
DWIDTH 25 0
BBX 19 12 3 0
BITMAP
07FC00
1E0F00
7803C0
7803C0
F001E0
F001E0
F001E0
F001E0
7803C0
7803C0
3E0F80
07FC00
ENDCHAR

STARTCHAR p
ENCODING 112
SWIDTH 1000 0
DWIDTH 25 0
BBX 21 16 2 -4
BITMAP
FE7FC0
1FC3F0
1F00F0
1E0078
1E0078
1E0078
1E0078
1E0078
1E0078
1F00F0
1FC3F0
1E7FC0
1E0000
1E0000
1E0000
FFF000
ENDCHAR

STARTCHAR q
ENCODING 113
SWIDTH 1000 0
DWIDTH 25 0
BBX 21 16 2 -4
BITMAP
07F3F8
1E1FC0
7807C0
7803C0
F003C0
F003C0
F003C0
F003C0
7803C0
7807C0
3E1FC0
07F3C0
0003C0
0003C0
0003C0
003FF8
ENDCHAR

STARTCHAR r
ENCODING 114
SWIDTH 1000 0
DWIDTH 25 0
BBX 21 12 2 0
BITMAP
FF9FF8
07F0F8
07C078
078000
078000
078000
078000
078000
078000
078000
078000
FFFC00
ENDCHAR

STARTCHAR s
ENCODING 115
SWIDTH 1000 0
DWIDTH 25 0
BBX 19 12 3 0
BITMAP
1FF3C0
7C1FC0
F807C0
F801C0
7C0000
1FFF00
001FC0
0003E0
F001E0
F803E0
FE0FC0
FBFF00
ENDCHAR

STARTCHAR t
ENCODING 116
SWIDTH 1000 0
DWIDTH 25 0
BBX 21 16 2 0
BITMAP
03C000
03C000
03C000
03C000
FFFFE0
03C000
03C000
03C000
03C000
03C000
03C000
03C000
03C000
03C078
01E0F0
01FFC0
ENDCHAR

STARTCHAR u
ENCODING 117
SWIDTH 1000 0
DWIDTH 25 0
BBX 22 12 1 0
BITMAP
FE07E0
1E01E0
1E01E0
1E01E0
1E01E0
1E01E0
1E01E0
1E01E0
1E01E0
1E03E0
0F0FE0
07F9FC
ENDCHAR

STARTCHAR v
ENCODING 118
SWIDTH 1000 0
DWIDTH 25 0
BBX 23 12 1 0
BITMAP
FF81FE
3E0038
1E0070
0F00E0
0F00E0
0781C0
078380
03C780
01C700
01EE00
00FC00
00FC00
ENDCHAR

STARTCHAR w
ENCODING 119
SWIDTH 1000 0
DWIDTH 25 0
BBX 25 12 0 0
BITMAP
FF003F80
78040700
780C0700
3C0E0F00
3C1E0E00
1C3F0E00
1E379C00
1E739C00
0EE1DC00
0FC0F800
07C0F800
07807000
ENDCHAR

STARTCHAR x
ENCODING 120
SWIDTH 1000 0
DWIDTH 25 0
BBX 21 12 2 0
BITMAP
FFC7F8
3F03C0
0F8700
07CE00
01FC00
00F800
00FC00
01FE00
038F00
0707C0
1E03E0
FF8FF8
ENDCHAR

STARTCHAR y
ENCODING 121
SWIDTH 1000 0
DWIDTH 25 0
BBX 23 16 1 -4
BITMAP
FF83FE
3E00F0
1F01E0
0F01C0
0783C0
03C380
01E700
00FE00
007E00
003C00
003800
007800
007000
00F000
00F000
0FFE00
ENDCHAR

STARTCHAR z
ENCODING 122
SWIDTH 1000 0
DWIDTH 25 0
BBX 16 12 5 0
BITMAP
FFFF
C01F
C03E
C07C
00F0
03E0
07C0
0F00
1E03
7C03
F803
FFFF
ENDCHAR

STARTCHAR braceleft
ENCODING 123
SWIDTH 1000 0
DWIDTH 25 0
BBX 12 21 6 -3
BITMAP
01F0
0700
0700
0F00
0F00
0F00
0F00
0F00
0F00
1E00
F800
1E00
0F00
0F00
0F00
0F00
0F00
0F00
0700
0700
01F0
ENDCHAR

STARTCHAR bar
ENCODING 124
SWIDTH 1000 0
DWIDTH 25 0
BBX 4 22 11 -4
BITMAP
F0
F0
F0
F0
F0
F0
F0
F0
F0
F0
F0
F0
F0
F0
F0
F0
F0
F0
F0
F0
F0
F0
ENDCHAR

STARTCHAR braceright
ENCODING 125
SWIDTH 1000 0
DWIDTH 25 0
BBX 12 21 7 -3
BITMAP
F800
0E00
0E00
0F00
0F00
0F00
0F00
0F00
0F00
0780
01F0
0780
0F00
0F00
0F00
0F00
0F00
0F00
0E00
0E00
F800
ENDCHAR

STARTCHAR asciitilde
ENCODING 126
SWIDTH 1000 0
DWIDTH 25 0
BBX 16 4 5 6
BITMAP
3F03
7FFF
FFFE
C0FC
ENDCHAR

STARTCHAR unknown_0x80
ENCODING 128
SWIDTH 1000 0
DWIDTH 25 0
BBX 25 15 0 0
BITMAP
07FFFF80
3F0F0180
3C0F0180
7C0F0180
780F0180
F80F1800
F80F1800
F80FF800
F80F1800
F80F1800
780F0180
7C0F0180
3C0F0180
3F0F0180
07FFFF80
ENDCHAR

STARTCHAR unknown_0x81
ENCODING 129
SWIDTH 1000 0
DWIDTH 25 0
BBX 22 15 1 0
BITMAP
FF87FC
3C00F0
1E01E0
0F03C0
078780
03C700
01EE00
00FC00
007800
007800
007800
007800
007800
007800
07FF80
ENDCHAR

STARTCHAR unknown_0x82
ENCODING 130
SWIDTH 1000 0
DWIDTH 25 0
BBX 22 21 1 0
BITMAP
0F01E0
0F01E0
0F01E0
000000
000000
000000
FF87FC
3C00F0
1E01E0
0F03C0
078780
03C700
01EE00
00FC00
007800
007800
007800
007800
007800
007800
07FF80
ENDCHAR

STARTCHAR unknown_0xa1
ENCODING 161
SWIDTH 1000 0
DWIDTH 25 0
BBX 6 15 10 -3
BITMAP
78
FC
FC
78
00
78
78
78
78
78
78
78
78
78
78
ENDCHAR

STARTCHAR cent
ENCODING 162
SWIDTH 1000 0
DWIDTH 25 0
BBX 18 20 4 -3
BITMAP
006000
006000
006000
006000
006000
1FFEC0
7C03C0
7800C0
F800C0
F00000
F00000
F80000
780000
7C07C0
1FFF00
006000
006000
006000
006000
006000
ENDCHAR

STARTCHAR sterling
ENCODING 163
SWIDTH 1000 0
DWIDTH 25 0
BBX 19 15 3 0
BITMAP
03FFC0
0F80C0
0E00C0
1E00C0
1F0000
0F0000
078000
FFFF00
078000
078000
0F0000
1E0060
3FF060
FFFFE0
F01FC0
ENDCHAR

STARTCHAR currency
ENCODING 164
SWIDTH 1000 0
DWIDTH 25 0
BBX 19 10 3 2
BITMAP
F801E0
FFFFE0
1C0700
380380
380380
380380
380380
1C0700
FFFFE0
F001E0
ENDCHAR

STARTCHAR yen
ENCODING 165
SWIDTH 1000 0
DWIDTH 25 0
BBX 22 15 1 0
BITMAP
FF87FC
1E01E0
0E01C0
0703C0
7F87F8
03C700
01EE00
00FC00
7FFFF8
007800
007800
007800
007800
007800
07FF80
ENDCHAR

STARTCHAR brokenbar
ENCODING 166
SWIDTH 1000 0
DWIDTH 25 0
BBX 4 23 11 -5
BITMAP
F0
F0
F0
F0
F0
F0
F0
F0
F0
00
00
00
00
00
F0
F0
F0
F0
F0
F0
F0
F0
F0
ENDCHAR

STARTCHAR section
ENCODING 167
SWIDTH 1000 0
DWIDTH 25 0
BBX 21 18 2 -3
BITMAP
07FFE0
1C01E0
1C01E0
1E01E0
7FC000
E3F800
C03E00
F00F80
7C01E0
1F0070
07E078
00F818
001F18
000FF8
3C03F0
3C01C0
3C01C0
3FFF00
ENDCHAR

STARTCHAR dieresis
ENCODING 168
SWIDTH 1000 0
DWIDTH 25 0
BBX 14 3 6 15
BITMAP
F03C
F03C
F03C
ENDCHAR

STARTCHAR copyright
ENCODING 169
SWIDTH 1000 0
DWIDTH 25 0
BBX 24 15 0 0
BITMAP
07FFE0
3C003C
38001C
70FF0E
7383CE
F300CF
F3000F
F3000F
F3000F
F300CF
7383CE
70FF0E
38001C
3C003C
07FFE0
ENDCHAR

STARTCHAR multiply
ENCODING 170
SWIDTH 1000 0
DWIDTH 25 0
BBX 19 13 3 5
BITMAP
1FFE00
3C0F00
3C0780
000780
0FFF80
3C0F80
780780
780780
3C0F80
0FFBE0
000000
000000
FFFFC0
ENDCHAR

STARTCHAR guillemotleft
ENCODING 171
SWIDTH 1000 0
DWIDTH 25 0
BBX 16 10 5 1
BITMAP
0E07
1E0F
7C3E
7038
E070
E070
7038
7C3E
1E0F
0E07
ENDCHAR

STARTCHAR logicalnot
ENCODING 172
SWIDTH 1000 0
DWIDTH 25 0
BBX 19 6 3 3
BITMAP
FFFFE0
FFFFE0
0001E0
0001E0
0001E0
0001E0
ENDCHAR

STARTCHAR hyphen
ENCODING 173
SWIDTH 1000 0
DWIDTH 25 0
BBX 15 2 5 6
BITMAP
FFFE
FFFE
ENDCHAR

STARTCHAR registered
ENCODING 174
SWIDTH 1000 0
DWIDTH 25 0
BBX 24 15 0 0
BITMAP
07FFE0
3C003C
38001C
71FF0E
71818E
F1818F
F1818F
F1FF0F
F1818F
F1818F
71818E
71818E
38001C
3C003C
07FFE0
ENDCHAR

STARTCHAR macron
ENCODING 175
SWIDTH 1000 0
DWIDTH 25 0
BBX 15 2 5 15
BITMAP
FFFE
FFFE
ENDCHAR

STARTCHAR degree
ENCODING 176
SWIDTH 1000 0
DWIDTH 25 0
BBX 13 8 5 9
BITMAP
1FC0
7070
E038
E038
E038
E038
7070
1FC0
ENDCHAR

STARTCHAR plusminus
ENCODING 177
SWIDTH 1000 0
DWIDTH 25 0
BBX 20 15 2 0
BITMAP
00F000
00F000
00F000
00F000
00F000
FFFFF0
FFFFF0
00F000
00F000
00F000
00F000
00F000
000000
FFFFF0
FFFFF0
ENDCHAR

STARTCHAR twosuperior
ENCODING 178
SWIDTH 1000 0
DWIDTH 25 0
BBX 12 10 7 8
BITMAP
3F80
E1E0
E1E0
01E0
03C0
0700
1E00
3800
F070
FFF0
ENDCHAR

STARTCHAR threesuperior
ENCODING 179
SWIDTH 1000 0
DWIDTH 25 0
BBX 12 10 7 8
BITMAP
3FC0
C1F0
C0F0
00E0
0780
00E0
00F0
C0F0
C1F0
7FC0
ENDCHAR

STARTCHAR acute
ENCODING 180
SWIDTH 1000 0
DWIDTH 25 0
BBX 11 4 8 14
BITMAP
0FE0
3FC0
3E00
F800
ENDCHAR

STARTCHAR mu
ENCODING 181
SWIDTH 1000 0
DWIDTH 25 0
BBX 22 17 2 -5
BITMAP
7F003C
0F003C
0F0038
0E0078
1E0078
1E0070
1E00F0
3C00F0
3C00E0
3C03E0
3E07E0
7FF9FC
780000
700000
F00000
F00000
E00000
ENDCHAR

STARTCHAR paragraph
ENCODING 182
SWIDTH 1000 0
DWIDTH 25 0
BBX 20 18 2 -3
BITMAP
0FFFF0
7FF180
7FF180
FFF180
FFF180
FFF180
7FF180
7FF180
0FF180
003180
003180
003180
003180
003180
003180
003180
003180
03F1F0
ENDCHAR

STARTCHAR periodcentered
ENCODING 183
SWIDTH 1000 0
DWIDTH 25 0
BBX 9 6 8 4
BITMAP
3E00
7F00
FF80
FF80
7F00
3E00
ENDCHAR

STARTCHAR cedilla
ENCODING 184
SWIDTH 1000 0
DWIDTH 25 0
BBX 14 5 6 -5
BITMAP
0E00
0FF0
003C
F83C
3FF8
ENDCHAR

STARTCHAR onesuperior
ENCODING 185
SWIDTH 1000 0
DWIDTH 25 0
BBX 12 10 7 8
BITMAP
FF00
0F00
0F00
0F00
0F00
0F00
0F00
0F00
0F00
FFF0
ENDCHAR

STARTCHAR divide
ENCODING 186
SWIDTH 1000 0
DWIDTH 25 0
BBX 16 12 5 6
BITMAP
1FF8
781E
700E
F00F
F00F
F00F
700E
781E
1FF8
0000
0000
FFFF
ENDCHAR

STARTCHAR guillemotright
ENCODING 187
SWIDTH 1000 0
DWIDTH 25 0
BBX 16 10 4 1
BITMAP
E070
F078
7C3E
1C0E
0E07
0E07
1C0E
7C3E
F078
E070
ENDCHAR

STARTCHAR onequarter
ENCODING 188
SWIDTH 1000 0
DWIDTH 25 0
BBX 23 20 1 -5
BITMAP
7E0000
1E0000
1E0000
1E0000
1E0000
1E0000
1E001C
1E00FC
7F83E0
001F00
00FC00
07E0F0
3F03F0
F80EF0
C018F0
0070F0
00FFFE
0000F0
0000F0
0000F0
ENDCHAR

STARTCHAR onehalf
ENCODING 189
SWIDTH 1000 0
DWIDTH 25 0
BBX 23 20 1 -5
BITMAP
7E0000
1E0000
1E0000
1E0000
1E0000
1E0000
1E001C
1E00FC
7F87E0
001F00
007800
03E3F8
1F0E3C
F80C1C
E0003C
000078
0001E0
000380
000606
000FFE
ENDCHAR

STARTCHAR threequarters
ENCODING 190
SWIDTH 1000 0
DWIDTH 25 0
BBX 23 20 1 -5
BITMAP
3FC000
C1F000
C1F000
01E000
078000
01E000
C1F01C
C1F07C
3FC3E0
001F80
007C00
03F0F0
1F83F0
FC06F0
E01CF0
0070F0
00C0F0
01FFFE
0000F0
0000F0
ENDCHAR

STARTCHAR unknown_0xbf
ENCODING 191
SWIDTH 1000 0
DWIDTH 25 0
BBX 19 15 3 -3
BITMAP
000000
000000
000000
000000
000000
000000
000000
000000
000000
000000
000000
000000
000000
000000
000000
ENDCHAR

STARTCHAR unknown_0xc0
ENCODING 192
SWIDTH 1000 0
DWIDTH 25 0
BBX 25 21 0 0
BITMAP
00000000
00000000
00000000
00000000
00000000
00000000
00000000
00000000
00000000
00000000
00000000
00000000
00000000
00000000
00000000
00000000
00000000
00000000
00000000
00000000
00000000
ENDCHAR

STARTCHAR unknown_0xc1
ENCODING 193
SWIDTH 1000 0
DWIDTH 25 0
BBX 25 21 0 0
BITMAP
00000000
00000000
00000000
00000000
00000000
00000000
00000000
00000000
00000000
00000000
00000000
00000000
00000000
00000000
00000000
00000000
00000000
00000000
00000000
00000000
00000000
ENDCHAR

STARTCHAR unknown_0xc2
ENCODING 194
SWIDTH 1000 0
DWIDTH 25 0
BBX 25 21 0 0
BITMAP
00000000
00000000
00000000
00000000
00000000
00000000
00000000
00000000
00000000
00000000
00000000
00000000
00000000
00000000
00000000
00000000
00000000
00000000
00000000
00000000
00000000
ENDCHAR

STARTCHAR unknown_0xc3
ENCODING 195
SWIDTH 1000 0
DWIDTH 25 0
BBX 25 21 0 0
BITMAP
00000000
00000000
00000000
00000000
00000000
00000000
00000000
00000000
00000000
00000000
00000000
00000000
00000000
00000000
00000000
00000000
00000000
00000000
00000000
00000000
00000000
ENDCHAR

STARTCHAR unknown_0xc4
ENCODING 196
SWIDTH 1000 0
DWIDTH 25 0
BBX 25 21 0 0
BITMAP
00000000
00000000
00000000
00000000
00000000
00000000
00000000
00000000
00000000
00000000
00000000
00000000
00000000
00000000
00000000
00000000
00000000
00000000
00000000
00000000
00000000
ENDCHAR

STARTCHAR unknown_0xc5
ENCODING 197
SWIDTH 1000 0
DWIDTH 25 0
BBX 25 21 0 0
BITMAP
00000000
00000000
00000000
00000000
00000000
00000000
00000000
00000000
00000000
00000000
00000000
00000000
00000000
00000000
00000000
00000000
00000000
00000000
00000000
00000000
00000000
ENDCHAR

STARTCHAR unknown_0xc6
ENCODING 198
SWIDTH 1000 0
DWIDTH 25 0
BBX 24 15 0 0
BITMAP
000000
000000
000000
000000
000000
000000
000000
000000
000000
000000
000000
000000
000000
000000
000000
ENDCHAR

STARTCHAR unknown_0xc7
ENCODING 199
SWIDTH 1000 0
DWIDTH 25 0
BBX 21 20 2 -5
BITMAP
000000
000000
000000
000000
000000
000000
000000
000000
000000
000000
000000
000000
000000
000000
000000
000000
000000
000000
000000
000000
ENDCHAR

STARTCHAR unknown_0xc8
ENCODING 200
SWIDTH 1000 0
DWIDTH 25 0
BBX 21 21 1 0
BITMAP
000000
000000
000000
000000
000000
000000
000000
000000
000000
000000
000000
000000
000000
000000
000000
000000
000000
000000
000000
000000
000000
ENDCHAR

STARTCHAR unknown_0xc9
ENCODING 201
SWIDTH 1000 0
DWIDTH 25 0
BBX 21 21 1 0
BITMAP
000000
000000
000000
000000
000000
000000
000000
000000
000000
000000
000000
000000
000000
000000
000000
000000
000000
000000
000000
000000
000000
ENDCHAR

STARTCHAR unknown_0xca
ENCODING 202
SWIDTH 1000 0
DWIDTH 25 0
BBX 21 21 1 0
BITMAP
000000
000000
000000
000000
000000
000000
000000
000000
000000
000000
000000
000000
000000
000000
000000
000000
000000
000000
000000
000000
000000
ENDCHAR

STARTCHAR unknown_0xcb
ENCODING 203
SWIDTH 1000 0
DWIDTH 25 0
BBX 21 21 1 0
BITMAP
000000
000000
000000
000000
000000
000000
000000
000000
000000
000000
000000
000000
000000
000000
000000
000000
000000
000000
000000
000000
000000
ENDCHAR

STARTCHAR unknown_0xcc
ENCODING 204
SWIDTH 1000 0
DWIDTH 25 0
BBX 18 21 3 0
BITMAP
000000
000000
000000
000000
000000
000000
000000
000000
000000
000000
000000
000000
000000
000000
000000
000000
000000
000000
000000
000000
000000
ENDCHAR

STARTCHAR unknown_0xcd
ENCODING 205
SWIDTH 1000 0
DWIDTH 25 0
BBX 18 21 3 0
BITMAP
000000
000000
000000
000000
000000
000000
000000
000000
000000
000000
000000
000000
000000
000000
000000
000000
000000
000000
000000
000000
000000
ENDCHAR

STARTCHAR unknown_0xce
ENCODING 206
SWIDTH 1000 0
DWIDTH 25 0
BBX 18 21 3 0
BITMAP
000000
000000
000000
000000
000000
000000
000000
000000
000000
000000
000000
000000
000000
000000
000000
000000
000000
000000
000000
000000
000000
ENDCHAR

STARTCHAR unknown_0xcf
ENCODING 207
SWIDTH 1000 0
DWIDTH 25 0
BBX 18 21 3 0
BITMAP
000000
000000
000000
000000
000000
000000
000000
000000
000000
000000
000000
000000
000000
000000
000000
000000
000000
000000
000000
000000
000000
ENDCHAR

STARTCHAR unknown_0xd0
ENCODING 208
SWIDTH 1000 0
DWIDTH 25 0
BBX 23 15 1 0
BITMAP
000000
000000
000000
000000
000000
000000
000000
000000
000000
000000
000000
000000
000000
000000
000000
ENDCHAR

STARTCHAR unknown_0xd1
ENCODING 209
SWIDTH 1000 0
DWIDTH 25 0
BBX 23 21 1 0
BITMAP
000000
000000
000000
000000
000000
000000
000000
000000
000000
000000
000000
000000
000000
000000
000000
000000
000000
000000
000000
000000
000000
ENDCHAR

STARTCHAR unknown_0xd2
ENCODING 210
SWIDTH 1000 0
DWIDTH 25 0
BBX 20 21 2 0
BITMAP
000000
000000
000000
000000
000000
000000
000000
000000
000000
000000
000000
000000
000000
000000
000000
000000
000000
000000
000000
000000
000000
ENDCHAR

STARTCHAR unknown_0xd3
ENCODING 211
SWIDTH 1000 0
DWIDTH 25 0
BBX 20 21 2 0
BITMAP
000000
000000
000000
000000
000000
000000
000000
000000
000000
000000
000000
000000
000000
000000
000000
000000
000000
000000
000000
000000
000000
ENDCHAR

STARTCHAR unknown_0xd4
ENCODING 212
SWIDTH 1000 0
DWIDTH 25 0
BBX 20 21 2 0
BITMAP
000000
000000
000000
000000
000000
000000
000000
000000
000000
000000
000000
000000
000000
000000
000000
000000
000000
000000
000000
000000
000000
ENDCHAR

STARTCHAR unknown_0xd5
ENCODING 213
SWIDTH 1000 0
DWIDTH 25 0
BBX 20 21 2 0
BITMAP
000000
000000
000000
000000
000000
000000
000000
000000
000000
000000
000000
000000
000000
000000
000000
000000
000000
000000
000000
000000
000000
ENDCHAR

STARTCHAR unknown_0xd6
ENCODING 214
SWIDTH 1000 0
DWIDTH 25 0
BBX 20 21 2 0
BITMAP
000000
000000
000000
000000
000000
000000
000000
000000
000000
000000
000000
000000
000000
000000
000000
000000
000000
000000
000000
000000
000000
ENDCHAR

STARTCHAR unknown_0xd7
ENCODING 215
SWIDTH 1000 0
DWIDTH 25 0
BBX 17 12 4 1
BITMAP
000000
000000
000000
000000
000000
000000
000000
000000
000000
000000
000000
000000
ENDCHAR

STARTCHAR unknown_0xd8
ENCODING 216
SWIDTH 1000 0
DWIDTH 25 0
BBX 20 19 3 -2
BITMAP
000000
000000
000000
000000
000000
000000
000000
000000
000000
000000
000000
000000
000000
000000
000000
000000
000000
000000
000000
ENDCHAR

STARTCHAR unknown_0xd9
ENCODING 217
SWIDTH 1000 0
DWIDTH 25 0
BBX 23 21 1 0
BITMAP
000000
000000
000000
000000
000000
000000
000000
000000
000000
000000
000000
000000
000000
000000
000000
000000
000000
000000
000000
000000
000000
ENDCHAR

STARTCHAR unknown_0xda
ENCODING 218
SWIDTH 1000 0
DWIDTH 25 0
BBX 23 21 1 0
BITMAP
000000
000000
000000
000000
000000
000000
000000
000000
000000
000000
000000
000000
000000
000000
000000
000000
000000
000000
000000
000000
000000
ENDCHAR

STARTCHAR unknown_0xdb
ENCODING 219
SWIDTH 1000 0
DWIDTH 25 0
BBX 23 21 1 0
BITMAP
000000
000000
000000
000000
000000
000000
000000
000000
000000
000000
000000
000000
000000
000000
000000
000000
000000
000000
000000
000000
000000
ENDCHAR

STARTCHAR unknown_0xdc
ENCODING 220
SWIDTH 1000 0
DWIDTH 25 0
BBX 23 21 1 0
BITMAP
000000
000000
000000
000000
000000
000000
000000
000000
000000
000000
000000
000000
000000
000000
000000
000000
000000
000000
000000
000000
000000
ENDCHAR

STARTCHAR unknown_0xdd
ENCODING 221
SWIDTH 1000 0
DWIDTH 25 0
BBX 22 21 1 0
BITMAP
000000
000000
000000
000000
000000
000000
000000
000000
000000
000000
000000
000000
000000
000000
000000
000000
000000
000000
000000
000000
000000
ENDCHAR

STARTCHAR unknown_0xde
ENCODING 222
SWIDTH 1000 0
DWIDTH 25 0
BBX 21 15 2 0
BITMAP
000000
000000
000000
000000
000000
000000
000000
000000
000000
000000
000000
000000
000000
000000
000000
ENDCHAR

STARTCHAR dblunderscore
ENCODING 223
SWIDTH 1000 0
DWIDTH 25 0
BBX 25 21 0 -5
BITMAP
00000000
00000000
00000000
00000000
00000000
00000000
00000000
00000000
00000000
00000000
00000000
00000000
00000000
00000000
00000000
FFFFFF80
FFFFFF80
00000000
00000000
FFFFFF80
FFFFFF80
ENDCHAR

STARTCHAR aleph
ENCODING 224
SWIDTH 1000 0
DWIDTH 25 0
BBX 20 14 3 0
BITMAP
F00780
F80780
7C0780
3E0780
1F0780
0F8780
3FCF00
79FE00
F0F800
F07C00
F03E00
F01F00
F00F80
F007C0
ENDCHAR

STARTCHAR beth
ENCODING 225
SWIDTH 1000 0
DWIDTH 25 0
BBX 20 14 3 0
BITMAP
7FFE00
7FFF80
0007C0
0003C0
0003C0
0003C0
0003C0
0003C0
0003C0
0003C0
0003C0
0003C0
FFFFF0
FFFFF0
ENDCHAR

STARTCHAR gimmel
ENCODING 226
SWIDTH 1000 0
DWIDTH 25 0
BBX 20 14 3 0
BITMAP
00FE00
00FF80
0007C0
0003C0
0003C0
0003C0
0003C0
0007C0
001FC0
007FC0
03FBC0
3FE3C0
3F83C0
3C03C0
ENDCHAR

STARTCHAR daleth
ENCODING 227
SWIDTH 1000 0
DWIDTH 25 0
BBX 20 14 3 0
BITMAP
FFFFF0
FFFFF0
000780
000780
000780
000780
000780
000780
000780
000780
000780
000780
000780
000780
ENDCHAR

STARTCHAR he
ENCODING 228
SWIDTH 1000 0
DWIDTH 25 0
BBX 20 14 3 0
BITMAP
FFFE00
FFFF80
0007C0
0003C0
0003C0
0003C0
F003C0
F003C0
F003C0
F003C0
F003C0
F003C0
F003C0
F003C0
ENDCHAR

STARTCHAR waw
ENCODING 229
SWIDTH 1000 0
DWIDTH 25 0
BBX 20 14 3 0
BITMAP
07F800
07F800
007800
007800
007800
007800
007800
007800
007800
007800
007800
007800
007800
007800
ENDCHAR

STARTCHAR zayin
ENCODING 230
SWIDTH 1000 0
DWIDTH 25 0
BBX 21 14 2 0
BITMAP
1FFF80
1FFF80
00F000
007800
007800
003C00
003C00
003C00
007800
007800
00F000
00F000
01E000
01E000
ENDCHAR

STARTCHAR het
ENCODING 231
SWIDTH 1000 0
DWIDTH 25 0
BBX 21 14 3 0
BITMAP
FFFF80
FFFFE0
F001F0
F000F0
F000F0
F000F0
F000F0
F000F0
F000F0
F000F0
F000F0
F000F0
F000F0
F000F0
ENDCHAR

STARTCHAR teth
ENCODING 232
SWIDTH 1000 0
DWIDTH 25 0
BBX 20 14 3 0
BITMAP
F01FE0
F07FF0
F0F8F0
F0F0F0
F0F0F0
F0F0F0
F000F0
F000F0
F000F0
F000F0
F000F0
F801F0
7FFFE0
1FFF80
ENDCHAR

STARTCHAR yod
ENCODING 233
SWIDTH 1000 0
DWIDTH 25 0
BBX 20 14 3 0
BITMAP
07FC00
07FC00
003C00
003C00
003C00
003C00
003C00
003C00
000000
000000
000000
000000
000000
000000
ENDCHAR

STARTCHAR kaphfinal
ENCODING 234
SWIDTH 1000 0
DWIDTH 25 0
BBX 20 18 3 -4
BITMAP
7FFFF0
7FFFF0
000780
000780
000780
000780
000780
000780
000780
000780
000780
000780
000780
000780
000780
000780
000780
000780
ENDCHAR

STARTCHAR kaph
ENCODING 235
SWIDTH 1000 0
DWIDTH 25 0
BBX 20 14 3 0
BITMAP
FFFF00
FFFFC0
0007E0
0001E0
0001F0
0000F0
0000F0
0000F0
0000F0
0001F0
0001E0
0007E0
FFFFC0
FFFF00
ENDCHAR

STARTCHAR lamed
ENCODING 236
SWIDTH 1000 0
DWIDTH 25 0
BBX 18 20 4 0
BITMAP
000000
F00000
F00000
F00000
F00000
F00000
FFFFC0
FFFFC0
0003C0
0003C0
000780
000780
000F00
000F00
001E00
001E00
003C00
003C00
007800
007800
ENDCHAR

STARTCHAR memfinal
ENCODING 237
SWIDTH 1000 0
DWIDTH 25 0
BBX 20 14 3 0
BITMAP
7FFF00
7FFFE0
7801F0
7800F0
7800F0
7800F0
7800F0
7800F0
7800F0
7800F0
7800F0
7800F0
7FFFF0
7FFFF0
ENDCHAR

STARTCHAR mem
ENCODING 238
SWIDTH 1000 0
DWIDTH 25 0
BBX 21 14 2 0
BITMAP
607C00
F1FF00
FBC7C0
7F01E0
3E00E0
1C00F0
3C00F0
3800F0
7800F0
7800F0
7000F0
F000F0
F07FF0
F07FF0
ENDCHAR

STARTCHAR nunfinal
ENCODING 239
SWIDTH 1000 0
DWIDTH 25 0
BBX 14 19 11 -5
BITMAP
0FE0
0FE0
01E0
01E0
01E0
01E0
01E0
01E0
01E0
01E0
01E0
01E0
01E0
01E0
01E0
01E0
01E0
01E0
0000
ENDCHAR

STARTCHAR nun
ENCODING 240
SWIDTH 1000 0
DWIDTH 25 0
BBX 19 14 3 0
BITMAP
03FC00
03FF00
000F80
000780
000780
000780
000780
000780
000780
000780
000780
000780
1FFF80
1FFF80
ENDCHAR

STARTCHAR samekh
ENCODING 241
SWIDTH 1000 0
DWIDTH 25 0
BBX 21 14 2 0
BITMAP
FFFFF8
FFFFF8
3C0078
3C0078
3C0078
3C0078
3C0078
3C0078
3C0078
1C0070
1E00F0
0F83E0
07FFC0
01FF00
ENDCHAR

STARTCHAR ayin
ENCODING 242
SWIDTH 1000 0
DWIDTH 25 0
BBX 20 14 3 0
BITMAP
7800F0
7C00F0
3C00F0
3E00F0
1E00F0
1F00F0
0F00F0
0F80F0
0780F0
07C0F0
03C0F0
03E1E0
FFFFE0
FFFF00
ENDCHAR

STARTCHAR pefinal
ENCODING 243
SWIDTH 1000 0
DWIDTH 25 0
BBX 20 19 3 -5
BITMAP
7FFF00
7FFFE0
7801E0
7800F0
7800F0
7800F0
7800F0
7C00F0
3FC0F0
0FC0F0
0000F0
0000F0
0000F0
0000F0
0000F0
0000F0
0000F0
0000F0
000000
ENDCHAR

STARTCHAR pe
ENCODING 244
SWIDTH 1000 0
DWIDTH 25 0
BBX 19 14 3 0
BITMAP
FFFC00
FFFF00
F00FC0
F003C0
F003E0
F001E0
F801E0
7F01E0
1F01E0
0003E0
0003C0
000FC0
FFFF80
FFFC00
ENDCHAR

STARTCHAR zadikfinal
ENCODING 245
SWIDTH 1000 0
DWIDTH 25 0
BBX 19 19 3 -5
BITMAP
6001E0
F001E0
F801E0
7C01E0
3E01E0
1F01E0
0F81C0
07C3C0
03FF80
01FE00
01F000
00F000
00F000
00F000
00F000
00F000
00F000
00F000
000000
ENDCHAR

STARTCHAR zadik
ENCODING 246
SWIDTH 1000 0
DWIDTH 25 0
BBX 20 14 3 0
BITMAP
3001E0
7801E0
7E01E0
3F01E0
0FC1E0
07E1C0
01FBC0
00FF00
003E00
001F00
000780
FFFFC0
FFFFE0
FFFFE0
ENDCHAR

STARTCHAR kof
ENCODING 247
SWIDTH 1000 0
DWIDTH 25 0
BBX 21 19 2 -5
BITMAP
FFFFF8
FFFFF8
000078
000078
0000F0
0000F0
3C01E0
3C01E0
3C03C0
3C03C0
3C0780
3C0780
3C0F00
3C0F00
3C0000
3C0000
3C0000
3C0000
000000
ENDCHAR

STARTCHAR resh
ENCODING 248
SWIDTH 1000 0
DWIDTH 25 0
BBX 21 14 3 0
BITMAP
7FFE00
7FFFC0
0003E0
0001E0
0001E0
0001E0
0001E0
0001E0
0001E0
0001E0
0001E0
0001E0
0001E0
0001E0
ENDCHAR

STARTCHAR shin
ENCODING 249
SWIDTH 1000 0
DWIDTH 25 0
BBX 21 14 2 0
BITMAP
F07078
F07078
F07078
F07078
F07078
F07078
F07078
F07078
F07078
F07078
F07078
7870F0
7FFFF0
1FFFC0
ENDCHAR

STARTCHAR taf
ENCODING 250
SWIDTH 1000 0
DWIDTH 25 0
BBX 21 14 2 0
BITMAP
FFFFC0
FFFFF0
1E00F8
1E0078
1E0078
1E0078
1E0078
1E0078
1E0078
1E0078
1E0078
1E0078
FE0078
FC0078
ENDCHAR

STARTCHAR unknown_0xfb
ENCODING 251
SWIDTH 1000 0
DWIDTH 25 0
BBX 21 19 2 0
BITMAP
01F000
03F800
0FBE00
1F0F00
000000
000000
000000
FE0FC0
1E03C0
1E03C0
1E03C0
1E03C0
1E03C0
1E03C0
1E03C0
1E03C0
1E07C0
0F1FC0
07F3F8
ENDCHAR

STARTCHAR unknown_0xfc
ENCODING 252
SWIDTH 1000 0
DWIDTH 25 0
BBX 21 18 2 0
BITMAP
1E0780
1E0780
1E0780
000000
000000
000000
FE0FC0
1E03C0
1E03C0
1E03C0
1E03C0
1E03C0
1E03C0
1E03C0
1E03C0
1E07C0
0F1FC0
07F3F8
ENDCHAR

STARTCHAR unknown_0xfd
ENCODING 253
SWIDTH 1000 0
DWIDTH 25 0
BBX 23 23 1 -4
BITMAP
0007F0
000FF0
003F80
007800
000000
000000
000000
FF83FE
3E00F0
1F00E0
0F01E0
0781C0
078380
03C700
01E700
00FE00
00FC00
007800
007800
007000
007000
00F000
0FFC00
ENDCHAR

STARTCHAR unknown_0xfe
ENCODING 254
SWIDTH 1000 0
DWIDTH 25 0
BBX 21 20 2 -4
BITMAP
FE0000
1E0000
1E0000
1E0000
1E7FC0
1FC3F0
1F00F0
1E0078
1E0078
1E0078
1E0078
1E0078
1E0078
1F00F0
1FC3F0
1E7FC0
1E0000
1E0000
1E0000
FFF000
ENDCHAR

STARTCHAR unknown_0xff
ENCODING 255
SWIDTH 1000 0
DWIDTH 25 0
BBX 23 22 1 -4
BITMAP
0F03C0
0F03C0
0F03C0
000000
000000
000000
FF83FE
3E00F0
1F00E0
0F01E0
0781C0
078380
03C700
01E700
01FE00
00FC00
007800
007800
007000
007000
00F000
0FFC00
ENDCHAR
ENDFONT
